Coordinates
version=1
nRows=13
nColumns=40
inDegrees=yes

Units are S.I. units (second, meters, Newtons, ...)
Angles are in degrees.

endheader
time	pelvis_tilt	pelvis_list	pelvis_rotation	pelvis_tx	pelvis_ty	pelvis_tz	hip_flexion_r	hip_adduction_r	hip_rotation_r	knee_angle_r	knee_angle_r_beta	ankle_angle_r	subtalar_angle_r	mtp_angle_r	hip_flexion_l	hip_adduction_l	hip_rotation_l	knee_angle_l	knee_angle_l_beta	ankle_angle_l	subtalar_angle_l	mtp_angle_l	lumbar_extension	lumbar_bending	lumbar_rotation	arm_flex_r	arm_add_r	arm_rot_r	elbow_flex_r	pro_sup_r	wrist_flex_r	wrist_dev_r	arm_flex_l	arm_add_l	arm_rot_l	elbow_flex_l	pro_sup_l	wrist_flex_l	wrist_dev_l
     46.87828571	     -2.02322755	     -3.72524765	      7.23827996	      1.03667686	      0.93470867	      0.49548521	      7.31049059	      2.39972281	    -17.55003405	     12.84738550	     12.84738550	      9.49563468	      0.25165025	     -8.72395061	     31.83940559	    -10.90626826	     -0.18147063	     27.41824832	     27.41824832	      8.15906193	    -13.59466649	      9.39264645	    -10.48338196	      5.90962180	      3.38857686	     33.53061265	    -20.04169821	     -6.56758420	     70.44651393	     45.21908159	      0.00000000	      0.00000000	     -5.06368962	     -6.35938072	      1.37203835	     24.42395255	     45.01947530	      0.00000000	      0.00000000
     46.89157143	     -2.11741904	     -3.77317418	      7.54052658	      1.03575894	      0.93442766	      0.49542883	      6.97962812	      2.51423810	    -17.72396807	     12.62139134	     12.62139134	      9.69684403	      0.22350995	     -8.77485959	     31.85973739	    -10.60165706	     -0.21490726	     24.39987916	     24.39987916	      7.87128560	    -12.10763487	      9.88373528	    -10.43151101	      5.94065644	      3.22949280	     35.16742591	    -19.98084494	     -6.86790826	     71.96571306	     45.18855881	      0.00000000	      0.00000000	     -6.03020582	     -6.10411156	      1.63011346	     23.87313218	     44.96431383	      0.00000000	      0.00000000
     46.90485714	     -2.18236400	     -3.86847447	      7.81684510	      1.03494615	      0.93414893	      0.49525857	      6.58816187	      2.67979545	    -17.98542496	     12.33435885	     12.33435885	      9.87920149	      0.35156998	     -8.81417421	     31.91877384	    -10.36587003	     -0.25184078	     21.87923187	     21.87923187	      7.56418440	    -10.52962006	     10.26494617	    -10.41024137	      6.05781078	      3.04978770	     36.63606695	    -19.89770660	     -7.12477833	     73.84837146	     45.14418026	      0.00000000	      0.00000000	     -6.96153432	     -5.87672212	      1.88654995	     23.45004591	     44.90825985	      0.00000000	      0.00000000
     46.91814286	     -2.23722679	     -4.03987521	      8.10359296	      1.03427840	      0.93382358	      0.49498311	      6.13996342	      2.91359062	    -18.40294468	     11.97815497	     11.97815497	     10.09815500	      0.86323319	     -8.82280000	     32.06833331	    -10.24355054	     -0.35685563	     19.92615528	     19.92615528	      7.23959091	     -8.75731489	     10.16156425	    -10.43505727	      6.26345344	      3.50889840	     37.16299274	    -20.35904641	     -7.86927036	     77.48489792	     45.06987571	      0.00000000	      0.00000000	     -7.63874194	     -5.77496627	      2.90793638	     23.49082466	     44.73925304	      0.00000000	      0.00000000
     46.93142857	     -2.25940129	     -4.12494111	      8.34397318	      1.03374417	      0.93363441	      0.49457106	      5.65015573	      3.07618891	    -18.59988771	     11.63207496	     11.63207496	     10.27495173	      1.05122860	     -8.80226847	     32.11996281	    -10.03233842	     -0.40768744	     18.38015021	     18.38015021	      6.94329728	     -7.41204555	     10.37612500	    -10.39238928	      6.36063724	      3.34468312	     38.52957675	    -20.16023803	     -8.06897120	     78.99013452	     45.03750728	      0.00000000	      0.00000000	     -8.43572849	     -5.61976736	      3.19834560	     23.17314979	     44.68097525	      0.00000000	      0.00000000
     46.94471429	     -2.25335859	     -4.26182194	      8.55553860	      1.03341074	      0.93343183	      0.49409435	      5.06490628	      3.30874942	    -18.89412659	     11.17297374	     11.17297374	     10.45317205	      1.48203776	     -8.74605197	     32.21347340	     -9.93630000	     -0.58873811	     17.43035963	     17.43035963	      6.68655617	     -6.13955708	     10.31356792	    -10.37035685	      6.52083431	      3.25011885	     39.63643345	    -19.97235994	     -8.28318409	     80.84697999	     44.99469676	      0.00000000	      0.00000000	     -9.18675323	     -5.50389041	      3.50019936	     23.11932180	     44.62079616	      0.00000000	      0.00000000
     46.95800000	     -2.23945596	     -4.45936251	      8.71708693	      1.03328922	      0.93315883	      0.49353314	      4.45803469	      3.59028778	    -19.29394404	     10.71044591	     10.71044591	     10.69405883	      2.19643707	     -8.61232852	     32.35145211	     -9.96582649	     -0.89622329	     17.05028062	     17.05028062	      6.35160528	     -5.06150567	      9.72308699	    -10.31183507	      6.76612813	      3.56426126	     40.21094872	    -20.15617994	     -8.78685780	     83.32263446	     44.94967702	      0.00000000	      0.00000000	     -9.86365426	     -5.52982745	      4.11645372	     23.61758467	     44.51605457	      0.00000000	      0.00000000
     46.97128571	     -2.31064198	     -4.54456191	      8.78962049	      1.03323028	      0.93278349	      0.49288019	      4.07242317	      3.71490509	    -19.32980514	     10.52722025	     10.52722025	     10.92478073	      2.31782962	     -8.63208677	     32.41924602	     -9.85011366	     -1.00750030	     16.92962500	     16.92962500	      6.05230783	     -4.86918512	      9.77872122	    -10.07175173	      6.82486127	      3.72868959	     41.20829395	    -20.27230610	     -8.94616912	     83.97437124	     44.93957925	      0.00000000	      0.00000000	    -10.35353745	     -5.47854392	      4.18010986	     23.49049145	     44.49822902	      0.00000000	      0.00000000
     46.98457143	     -2.10776162	     -4.73807179	      8.89796058	      1.03361662	      0.93270788	      0.49209386	      3.11215804	      4.06733614	    -19.63133107	      9.82606688	      9.82606688	     11.11101651	      3.05961529	     -8.46540923	     32.20225131	     -9.94520366	     -1.28775235	     17.24368928	     17.24368928	      5.79441033	     -4.61012985	      9.38120456	    -10.17896544	      7.12181207	      3.51541473	     41.99302286	    -19.66038507	     -9.05495629	     85.97392462	     44.88758791	      0.00000000	      0.00000000	    -10.94866905	     -5.42987539	      4.38691941	     23.67419586	     44.45708238	      0.00000000	      0.00000000
     46.99785714	     -2.04472135	     -4.88541704	      8.88714945	      1.03421253	      0.93231595	      0.49128041	      2.44529036	      4.26268112	    -19.97482115	      9.48144881	      9.48144881	     11.52901893	      4.00136340	     -8.05914165	     31.95141104	    -10.03446672	     -1.69492003	     17.67744265	     17.67744265	      5.16110885	     -4.71714918	      8.15624219	    -10.08934714	      7.26103194	      4.07442043	     41.97813627	    -19.96211795	     -9.70686104	     88.34363151	     44.85907617	      0.00000000	      0.00000000	    -11.55185432	     -5.66958604	      5.03091496	     24.88518943	     44.36718628	      0.00000000	      0.00000000
     47.01114286	     -2.03923619	     -4.98626697	      8.75619805	      1.03487900	      0.93180206	      0.49044223	      1.96888589	      4.38419021	    -19.84328181	      9.38032842	      9.38032842	     11.82153749	      4.19636757	     -8.10487263	     31.59453965	    -10.09610919	     -2.09624232	     18.23462231	     18.23462231	      4.82958094	     -5.16886805	      8.18804585	     -9.83277621	      7.33272758	      4.27480806	     42.51370764	    -19.90801030	     -9.75674975	     88.74610190	     44.85148008	      0.00000000	      0.00000000	    -11.89405795	     -5.71188555	      5.06396146	     24.81270855	     44.35841083	      0.00000000	      0.00000000
     47.02442857	     -1.83596658	     -5.26115087	      8.72165010	      1.03582487	      0.93123881	      0.48937930	      1.11869156	      4.75823111	    -19.99297219	      8.95415198	      8.95415198	     12.10446114	      4.83097466	     -7.95034212	     31.16327356	    -10.30995319	     -2.17715139	     19.23240506	     19.23240506	      4.56428915	     -5.91744345	      7.92733469	     -9.81513174	      7.69765880	      4.21432539	     43.01814444	    -19.53363935	     -9.83541373	     90.05901144	     44.81993172	      0.00000000	      0.00000000	    -12.20628673	     -5.72921452	      5.16023044	     25.13790463	     44.34529455	      0.00000000	      0.00000000
     47.03771429	     -1.77847458	     -5.37483137	      8.48851725	      1.03687187	      0.93055529	      0.48832840	      0.58763509	      4.85378818	    -19.80834455	      8.91624808	      8.91624808	     12.44748909	      5.14693542	     -7.97501732	     30.51820512	    -10.42753431	     -2.59546118	     19.91121965	     19.91121965	      4.23748751	     -6.51161397	      7.93065614	     -9.59165391	      7.78796965	      4.42753180	     43.22213529	    -19.38769240	     -9.85653678	     90.54015287	     44.80820647	      0.00000000	      0.00000000	    -12.41810656	     -5.80648902	      5.16011971	     25.27313624	     44.34456471	      0.00000000	      0.00000000
